<svg width="65" height="65" viewBox="0 0 65 65" fill="none" xmlns="http://www.w3.org/2000/svg">
<g clip-path="url(#clip0)">
<path d="M60.2301 23.6517L60.1881 23.7249C59.5482 23.3164 58.8039 23.1797 58.0806 23.2846C57.5042 22.5193 56.592 22.0161 55.5646 22.0161C54.7783 22.0161 54.0549 22.3094 53.5098 22.7922C51.4442 16.187 46.339 10.9031 39.8387 8.60721V2.01282C43.8014 3.07195 47.4293 4.97983 50.5008 7.51685C55.3966 11.5532 58.9088 17.2042 60.2301 23.6517Z" fill="#CF9E76"/>
<path d="M25.1613 2.01282V8.59697C18.6611 10.9031 13.5559 16.1768 11.4801 22.7814C10.9349 22.3094 10.2116 22.0161 9.43554 22.0161C8.40814 22.0161 7.49592 22.5193 6.91951 23.2846C6.1752 23.1797 5.39915 23.3266 4.74902 23.7566C6.86679 13.199 14.8454 4.76995 25.1613 2.01282Z" fill="#CF9E76"/>
<path d="M32.5 1.04839C29.963 1.04839 27.4991 1.38369 25.1613 2.01282V8.59698C27.4572 7.77895 29.9312 7.33871 32.5 7.33871C35.0687 7.33871 37.5428 7.77895 39.8387 8.60722V2.01282C37.5008 1.38369 35.037 1.04839 32.5 1.04839Z" fill="#B27946"/>
<path d="M63.9517 36.6936V38.7903C63.9517 39.9437 63.0082 40.8871 61.8549 40.8871H45.0807C46.1081 40.8871 47.0203 40.3839 47.5967 39.6186C48.5402 39.7548 49.5363 39.4717 50.2704 38.7381C51.004 38.004 51.2871 37.0079 51.1509 36.0644C51.413 35.8653 51.6433 35.6349 51.8322 35.3621C52.2305 35.467 52.6503 35.4773 53.0485 35.425C53.6249 36.1903 54.5372 36.6936 55.5646 36.6936C56.592 36.6936 57.5042 36.1903 58.0806 35.425C59.0138 35.5612 59.9992 35.2781 60.7333 34.5656L60.7543 34.5968H61.8549C63.0082 34.5968 63.9517 35.5402 63.9517 36.6936Z" fill="#F0D0B4"/>
<path d="M53.5097 22.7922C54.0549 22.3095 54.7782 22.0161 55.5645 22.0161C56.5919 22.0161 57.5042 22.5193 58.0806 23.2846C58.8039 23.1797 59.5482 23.3164 60.1881 23.7249C60.3872 23.8406 60.5756 23.987 60.7543 24.1651C61.4878 24.8992 61.7709 25.8954 61.6347 26.8388C62.4 27.4152 62.9032 28.3274 62.9032 29.3548C62.9032 30.3822 62.4 31.2945 61.6347 31.8709C61.7709 32.8143 61.4878 33.8105 60.7543 34.5446C60.7435 34.5548 60.7435 34.5548 60.7333 34.5655C59.9992 35.2781 59.0138 35.5612 58.0806 35.425C57.5042 36.1903 56.5919 36.6936 55.5645 36.6936C54.5371 36.6936 53.6249 36.1903 53.0485 35.425C52.6502 35.4773 52.2305 35.467 51.8322 35.3621C52.1993 34.8486 52.4194 34.2195 52.4194 33.5484C52.4194 32.521 51.9162 31.6088 51.1509 31.0324C51.287 30.0889 51.004 29.0927 50.2704 28.3587C49.8506 27.9394 49.3372 27.6671 48.813 27.5412C49.0019 27.2683 49.2322 27.0379 49.4943 26.8388C49.3582 25.8954 49.6413 24.8992 50.3748 24.1651C51.1089 23.4316 52.1051 23.1485 53.0485 23.2846C53.1847 23.1065 53.3418 22.9386 53.5097 22.7922Z" fill="#FF826E"/>
<path d="M57.6613 29.3548C57.6613 30.5128 56.7225 31.4516 55.5645 31.4516C54.4066 31.4516 53.4678 30.5128 53.4678 29.3548C53.4678 28.1969 54.4066 27.2581 55.5645 27.2581C56.7225 27.2581 57.6613 28.1969 57.6613 29.3548Z" fill="#E6E9ED"/>
<path d="M52.4194 33.5484C52.4194 34.2195 52.1993 34.8486 51.8322 35.3621C51.6434 35.6349 51.413 35.8653 51.1509 36.0644C51.2871 37.0079 51.004 38.004 50.2704 38.7381C49.5363 39.4717 48.5402 39.7548 47.5967 39.6186C47.0203 40.3839 46.1081 40.8871 45.0807 40.8871C44.2212 40.8871 43.4349 40.5308 42.8687 39.9539C42.7531 39.8597 42.6589 39.7445 42.5647 39.6186C41.6212 39.7548 40.6251 39.4717 39.891 38.7381C39.5557 38.4023 39.3043 38.0143 39.1574 37.5848V37.574C39.5869 37.0396 39.8388 36.3685 39.8388 35.6452C39.8388 34.6178 39.3356 33.7055 38.5703 33.1291C38.6435 32.6259 38.5912 32.1017 38.4233 31.6088C38.6015 31.3886 38.7904 31.1997 39.0105 31.0324C38.8743 30.0889 39.1574 29.0927 39.891 28.3587C40.6251 27.6251 41.6212 27.342 42.5647 27.4782C43.1411 26.7129 44.0533 26.2097 45.0807 26.2097C46.1081 26.2097 47.0203 26.7129 47.5967 27.4782C47.995 27.4152 48.4148 27.4362 48.813 27.5411C49.3372 27.6671 49.8507 27.9394 50.2704 28.3587C51.004 29.0927 51.2871 30.0889 51.1509 31.0324C51.9162 31.6088 52.4194 32.521 52.4194 33.5484Z" fill="#FCD770"/>
<path d="M23.0645 59.7581H48.2258C49.3791 59.7581 50.3225 60.7015 50.3225 61.8548C50.3225 62.4312 50.0917 62.9554 49.7041 63.3332C49.3264 63.7207 48.8022 63.9516 48.2258 63.9516H16.7741C15.6208 63.9516 14.6774 63.0082 14.6774 61.8548C14.6774 61.2784 14.9082 60.7542 15.2958 60.3764C15.6735 59.9889 16.1977 59.7581 16.7741 59.7581H23.0645Z" fill="#B27946"/>
<path d="M47.1774 33.5484C47.1774 34.7063 46.2386 35.6452 45.0807 35.6452C43.9227 35.6452 42.9839 34.7063 42.9839 33.5484C42.9839 32.3905 43.9227 31.4516 45.0807 31.4516C46.2386 31.4516 47.1774 32.3905 47.1774 33.5484Z" fill="#E6E9ED"/>
<path d="M26.5767 31.6088C26.7236 31.1895 26.9647 30.8015 27.3102 30.4554C28.0443 29.7219 29.0405 29.4388 29.9839 29.575C30.5603 28.8097 31.4726 28.3065 32.5 28.3065C33.5274 28.3065 34.4396 28.8097 35.016 29.575C35.9594 29.4388 36.9556 29.7219 37.6897 30.4554C38.0352 30.8015 38.2763 31.1895 38.4233 31.6088C38.5912 32.1017 38.6434 32.6259 38.5702 33.1291C39.3355 33.7055 39.8387 34.6178 39.8387 35.6452C39.8387 36.3685 39.5868 37.0396 39.1573 37.574V37.5848C38.9894 37.8049 38.7903 37.9938 38.5702 38.1612C38.7063 39.1046 38.4233 40.1008 37.6897 40.8349C36.9556 41.5685 35.9594 41.8515 35.016 41.7154C34.7749 42.0404 34.4708 42.3128 34.1248 42.5119C33.6533 42.816 33.0974 42.9839 32.5 42.9839C31.9026 42.9839 31.3466 42.816 30.8752 42.5119C30.5291 42.3128 30.225 42.0404 29.9839 41.7154C29.0405 41.8515 28.0443 41.5685 27.3102 40.8349C26.5767 40.1008 26.2936 39.1046 26.4298 38.1612C26.2096 37.9938 26.0105 37.8049 25.8426 37.5848V37.574C25.4131 37.0396 25.1613 36.3685 25.1613 35.6452C25.1613 34.6178 25.6645 33.7055 26.4298 33.1291C26.3566 32.6259 26.4088 32.1017 26.5767 31.6088Z" fill="#FF826E"/>
<path d="M34.5967 35.6452C34.5967 36.8031 33.6579 37.7419 32.5 37.7419C31.342 37.7419 30.4032 36.8031 30.4032 35.6452C30.4032 34.4872 31.342 33.5484 32.5 33.5484C33.6579 33.5484 34.5967 34.4872 34.5967 35.6452Z" fill="#E6E9ED"/>
<path d="M26.5768 31.6088C26.4089 32.1017 26.3566 32.6259 26.4298 33.1291C25.6645 33.7055 25.1613 34.6178 25.1613 35.6452C25.1613 36.3685 25.4132 37.0396 25.8427 37.574V37.5848C25.6958 38.0143 25.4444 38.4023 25.1091 38.7381C24.375 39.4717 23.3789 39.7548 22.4354 39.6186C22.3412 39.7445 22.247 39.8597 22.1314 39.9539C21.5652 40.5308 20.7789 40.8871 19.9194 40.8871C18.892 40.8871 17.9798 40.3839 17.4034 39.6186C16.4599 39.7548 15.4638 39.4717 14.7297 38.7381C13.9961 38.004 13.713 37.0079 13.8492 36.0644C13.5871 35.8653 13.3567 35.6349 13.1678 35.3621C12.8008 34.8486 12.5807 34.2195 12.5807 33.5484C12.5807 32.521 13.0839 31.6088 13.8492 31.0324C13.713 30.0889 13.9961 29.0927 14.7297 28.3587C15.1494 27.9394 15.6629 27.6671 16.1871 27.5411C16.5853 27.4362 17.0051 27.4152 17.4034 27.4782C17.9798 26.7129 18.892 26.2097 19.9194 26.2097C20.9468 26.2097 21.859 26.7129 22.4354 27.4782C23.3789 27.342 24.375 27.6251 25.1091 28.3587C25.8427 29.0927 26.1258 30.0889 25.9896 31.0324C26.2097 31.1997 26.3986 31.3886 26.5768 31.6088Z" fill="#FCD770"/>
<path d="M22.0162 33.5484C22.0162 34.7063 21.0773 35.6452 19.9194 35.6452C18.7615 35.6452 17.8226 34.7063 17.8226 33.5484C17.8226 32.3905 18.7615 31.4516 19.9194 31.4516C21.0773 31.4516 22.0162 32.3905 22.0162 33.5484Z" fill="#E6E9ED"/>
<path d="M19.9193 40.8871H3.14511C1.99179 40.8871 1.04834 39.9437 1.04834 38.7903V36.6936C1.04834 35.5402 1.99179 34.5968 3.14511 34.5968H4.24572L4.2667 34.5656C5.00078 35.2781 5.9862 35.5612 6.91941 35.425C7.49582 36.1903 8.40804 36.6936 9.43544 36.6936C10.4628 36.6936 11.3751 36.1903 11.9515 35.425C12.3497 35.4773 12.7695 35.467 13.1678 35.3621C13.3566 35.6349 13.587 35.8653 13.8491 36.0644C13.7129 37.0079 13.996 38.004 14.7296 38.7381C15.4637 39.4717 16.4598 39.7548 17.4033 39.6186C17.9797 40.3839 18.8919 40.8871 19.9193 40.8871Z" fill="#F0D0B4"/>
<path d="M11.4801 22.7814C11.6582 22.9283 11.8154 23.0957 11.9515 23.2846C12.895 23.1485 13.8912 23.4316 14.6252 24.1651C15.3588 24.8992 15.6419 25.8954 15.5057 26.8388C15.7678 27.0379 15.9982 27.2791 16.1871 27.5412C15.6629 27.6671 15.1494 27.9394 14.7297 28.3587C13.9961 29.0927 13.713 30.0889 13.8492 31.0324C13.0839 31.6088 12.5807 32.521 12.5807 33.5484C12.5807 34.2195 12.8008 34.8486 13.1678 35.3621C12.7696 35.467 12.3498 35.4773 11.9515 35.425C11.3751 36.1903 10.4629 36.6936 9.43551 36.6936C8.40811 36.6936 7.49589 36.1903 6.91949 35.425C5.98628 35.5612 5.00085 35.2781 4.26678 34.5655C4.25654 34.5548 4.25654 34.5548 4.24579 34.5446C3.51223 33.8105 3.22914 32.8143 3.36531 31.8709C2.60001 31.2945 2.0968 30.3822 2.0968 29.3548C2.0968 28.3274 2.60001 27.4152 3.36531 26.8388C3.22914 25.8954 3.51223 24.8992 4.24579 24.1651C4.40346 24.008 4.57085 23.8718 4.749 23.7669V23.7566C5.39912 23.3266 6.17517 23.1797 6.91949 23.2846C7.49589 22.5193 8.40811 22.0161 9.43551 22.0161C10.2116 22.0161 10.9349 22.3095 11.4801 22.7814Z" fill="#FF826E"/>
<path d="M45.0806 40.8871C44.2211 40.8871 43.4348 40.5308 42.8687 39.9539C42.753 39.8597 42.6588 39.7445 42.5646 39.6186C41.6212 39.7548 40.625 39.4717 39.8909 38.7381C39.5556 38.4023 39.3043 38.0143 39.1573 37.5848C38.9894 37.8049 38.7903 37.9938 38.5702 38.1612C38.7064 39.1046 38.4233 40.1008 37.6897 40.8349C36.9556 41.5684 35.9595 41.8515 35.016 41.7154C34.7749 42.0404 34.4708 42.3128 34.1248 42.5119C33.6533 42.816 33.0974 42.9839 32.5 42.9839C31.9026 42.9839 31.3467 42.816 30.8752 42.5119C30.5291 42.3128 30.2251 42.0404 29.984 41.7154C29.0405 41.8515 28.0443 41.5684 27.3103 40.8349C26.5767 40.1008 26.2936 39.1046 26.4298 38.1612C26.2097 37.9938 26.0105 37.8049 25.8426 37.5848C25.6957 38.0143 25.4444 38.4023 25.1091 38.7381C24.375 39.4717 23.3788 39.7548 22.4354 39.6186C22.3412 39.7445 22.247 39.8597 22.1313 39.9539C21.5651 40.5308 20.7788 40.8871 19.9193 40.8871H3.14514C3.9944 46.0241 6.54216 50.5115 10.1378 53.8138C13.608 56.9902 18.0534 59.0767 22.9176 59.6111C23.0015 59.6321 23.0957 59.6429 23.1797 59.6429C23.924 59.7161 24.6683 59.7581 25.4234 59.7581H39.5766C40.3317 59.7581 41.076 59.7161 41.8203 59.6429C41.9042 59.6429 41.9984 59.6321 42.0824 59.6111C46.9465 59.0767 51.3919 56.9902 54.8622 53.8138C58.4578 50.5115 61.0056 46.0241 61.8548 40.8871H45.0806Z" fill="#CF9E76"/>
<path d="M11.5323 29.3548C11.5323 30.5128 10.5935 31.4516 9.43552 31.4516C8.27758 31.4516 7.33875 30.5128 7.33875 29.3548C7.33875 28.1969 8.27758 27.2581 9.43552 27.2581C10.5935 27.2581 11.5323 28.1969 11.5323 29.3548Z" fill="#E6E9ED"/>
<path d="M62.4963 33.6154C62.6309 33.1982 62.7164 32.7652 62.7133 32.3178C63.5073 31.5335 63.9516 30.4821 63.9516 29.3548C63.9516 28.2276 63.5073 27.1762 62.7133 26.3929C62.721 25.2795 62.292 24.2219 61.4955 23.4228C61.4008 23.3287 61.2917 23.2575 61.1904 23.1736C58.3073 9.73137 46.2913 0 32.5 0C18.6918 0 6.70036 9.72266 3.81422 23.1695C3.71031 23.2544 3.60025 23.3276 3.5035 23.4228C2.70799 24.2209 2.27901 25.2785 2.28669 26.3919C1.49272 27.1762 1.04839 28.2276 1.04839 29.3548C1.04839 30.4821 1.49272 31.5335 2.28669 32.3167C2.28362 32.7652 2.36911 33.1982 2.50374 33.6144C1.07552 33.9124 0 35.1798 0 36.6935V38.7903C0 40.218 0.962386 41.4133 2.26775 41.7962C3.8173 49.5824 9.04029 55.8174 15.9649 58.8289C14.6242 59.1888 13.629 60.4015 13.629 61.8548C13.629 63.5887 15.0404 65 16.7742 65H48.2258C49.9596 65 51.371 63.5887 51.371 61.8548C51.371 60.4015 50.3758 59.1888 49.0351 58.8279C55.9587 55.8164 61.1817 49.5824 62.7322 41.7952C64.0376 41.4133 65 40.218 65 38.7903V36.6935C65 35.1798 63.9245 33.9124 62.4963 33.6154ZM61.8548 29.3548C61.8548 30.0152 61.5446 30.6244 61.0035 31.0283L60.5034 31.4014L60.5935 32.0188C60.6902 32.6868 60.4783 33.3365 60.012 33.8023C59.5451 34.2686 58.8919 34.4816 58.2275 34.3848L57.6101 34.2947L57.2379 34.7949C56.4286 35.8771 54.6963 35.875 53.8911 34.7949L53.5179 34.2958L53.3925 34.3137C53.4386 34.0644 53.4677 33.8084 53.4677 33.5484C53.4677 32.4212 53.0234 31.3697 52.2294 30.5865C52.2371 29.4731 51.8081 28.4155 51.0116 27.6164C50.8908 27.4961 50.7546 27.4009 50.6226 27.298L50.5345 26.6909C50.4378 26.0228 50.6497 25.3732 51.116 24.9074C51.5819 24.441 52.2361 24.2301 52.9005 24.3248L53.5179 24.4149L53.8911 23.9148C54.6973 22.8347 56.4286 22.8326 57.2379 23.9148L57.6101 24.4149L58.2275 24.3248C58.8899 24.2271 59.5461 24.439 60.0109 24.9064C60.4773 25.3732 60.6892 26.0228 60.5935 26.6909L60.5034 27.3082L61.0035 27.6814C61.5446 28.0853 61.8548 28.6945 61.8548 29.3548ZM16.5843 26.394C16.592 25.2806 16.163 24.2219 15.3664 23.4228C14.6646 22.7226 13.757 22.3263 12.7916 22.2403C15.7918 13.9213 23.5908 8.3871 32.5 8.3871C41.4123 8.3871 49.2082 13.9213 52.2084 22.2414C51.243 22.3263 50.3354 22.7226 49.6325 23.4239C48.837 24.2219 48.408 25.2806 48.4157 26.394C48.405 26.4047 48.3968 26.4185 48.385 26.4288C48.278 26.4206 48.1746 26.3975 48.0666 26.3975C48.0579 26.3975 48.0497 26.3986 48.0425 26.3986C47.2583 25.6056 46.2068 25.1613 45.0806 25.1613C43.9534 25.1613 42.902 25.6056 42.1187 26.3996C41.0043 26.4288 39.9467 26.8209 39.1487 27.6174C38.6332 28.1344 38.2902 28.7667 38.1013 29.447C37.3467 28.8399 36.4135 28.5143 35.4619 28.4964C34.6777 27.7024 33.6262 27.2581 32.5 27.2581C31.3728 27.2581 30.3213 27.7024 29.5381 28.4964C29.5299 28.4964 29.5217 28.4964 29.514 28.4964C28.5517 28.4964 27.643 28.8378 26.8987 29.4439C26.7098 28.7646 26.3668 28.1334 25.8513 27.6164C25.0594 26.826 24.011 26.3986 22.9063 26.3986C22.8976 26.3986 22.8894 26.3996 22.8823 26.3996C22.097 25.6056 21.0456 25.1613 19.9194 25.1613C18.7921 25.1613 17.7407 25.6056 16.9575 26.3996C16.8423 26.4027 16.7332 26.4257 16.6211 26.4359C16.6073 26.4226 16.5981 26.4068 16.5843 26.394ZM33.5484 6.3323V2.14285C35.339 2.21195 37.0918 2.45306 38.7903 2.859V7.16978C37.1067 6.69729 35.3518 6.41318 33.5484 6.3323ZM31.4516 6.3323C29.6482 6.41318 27.8933 6.69729 26.2097 7.1708V2.85798C27.9082 2.45306 29.661 2.21195 31.4516 2.14285V6.3323ZM38.7002 55.0403L41.9355 51.8051L45.1707 55.0403L41.9355 58.2756L38.7002 55.0403ZM37.2177 53.5578L33.9825 50.3226L37.2177 47.0873L40.453 50.3226L37.2177 53.5578ZM23.0645 58.2756L19.8293 55.0403L23.0645 51.8051L26.2998 55.0403L23.0645 58.2756ZM24.547 50.3226L27.7823 47.0873L31.0175 50.3226L27.7823 53.5578L24.547 50.3226ZM27.47 32.9812C27.3732 32.3132 27.5852 31.6635 28.0515 31.1977C28.5174 30.7314 29.1726 30.5194 29.836 30.6152L30.4534 30.7052L30.8266 30.2051C31.6339 29.125 33.3651 29.1229 34.1734 30.2051L34.5456 30.7052L35.1629 30.6152C35.8264 30.5164 36.4816 30.7293 36.9464 31.1967C37.4128 31.6635 37.6247 32.3132 37.529 32.9812L37.4389 33.5986L37.939 33.9717C38.4801 34.3756 38.7903 34.9848 38.7903 35.6452C38.7903 36.3055 38.4801 36.9147 37.939 37.3186L37.4389 37.6918L37.529 38.3091C37.6257 38.9772 37.4138 39.6268 36.9475 40.0926C36.4806 40.5579 35.8284 40.774 35.1629 40.6752L34.5456 40.5851L34.1734 41.0852C33.3651 42.1674 31.6328 42.1653 30.8266 41.0852L30.4534 40.5851L29.836 40.6752C29.1706 40.7729 28.5174 40.559 28.0515 40.0926C27.5862 39.6258 27.3743 38.9772 27.47 38.3091L27.5601 37.6918L27.06 37.3186C26.5199 36.9147 26.2097 36.3055 26.2097 35.6452C26.2097 34.9848 26.5199 34.3756 27.061 33.9717L27.5611 33.5986L27.47 32.9812ZM31.0953 43.7743C31.5407 43.9335 32.0106 44.0323 32.5 44.0323C32.9884 44.0323 33.4583 43.9335 33.9036 43.7743L35.7353 45.6059L32.5 48.8401L29.2647 45.6048L31.0953 43.7743ZM25.5206 39.7486C25.7095 40.4279 26.0525 41.0591 26.569 41.5746C27.2719 42.2774 28.1795 42.6747 29.146 42.7586L27.7823 44.1224L24.1498 40.4899C24.6463 40.3337 25.1091 40.0849 25.5206 39.7486ZM26.2998 45.6048L23.0645 48.8401L19.8293 45.6048L23.0645 42.3696L26.2998 45.6048ZM32.5 51.8051L35.7353 55.0403L32.5 58.2756L29.2647 55.0403L32.5 51.8051ZM38.7002 45.6048L41.9355 42.3696L45.1707 45.6048L41.9355 48.8401L38.7002 45.6048ZM37.2177 44.1224L35.854 42.7586C36.8205 42.6737 37.7291 42.2774 38.432 41.5746C38.9475 41.0591 39.2905 40.4279 39.4804 39.7486C39.8919 40.0849 40.3547 40.3337 40.8513 40.4899L37.2177 44.1224ZM14.4803 31.875L14.9805 31.5018L14.8904 30.8844C14.7936 30.2164 15.0056 29.5668 15.4719 29.1009C15.9388 28.6346 16.595 28.4216 17.2564 28.5184L17.8738 28.6085L18.247 28.1083C19.0532 27.0282 20.7845 27.0262 21.5938 28.1083L21.966 28.6085L22.5833 28.5184C23.2488 28.4186 23.902 28.6336 24.3668 29.0999C24.8332 29.5668 25.0451 30.2164 24.9494 30.8844L24.8593 31.5018L25.3594 31.8739C25.3824 31.8908 25.3983 31.9149 25.4203 31.9328C25.3773 32.179 25.3502 32.4288 25.3512 32.6822C24.5572 33.4665 24.1129 34.5179 24.1129 35.6452C24.1129 36.3634 24.311 37.0406 24.6463 37.6477C24.567 37.7721 24.4748 37.8899 24.3678 37.9958C23.901 38.4612 23.2514 38.6762 22.5833 38.5784L21.966 38.4883L21.5938 38.9884C20.7845 40.0706 19.0522 40.0686 18.247 38.9884L17.8738 38.4883L17.2564 38.5784C16.592 38.6751 15.9377 38.4622 15.4719 37.9958C15.0066 37.529 14.7946 36.8804 14.8904 36.2124L14.9805 35.595L14.4803 35.2218C13.9392 34.8179 13.629 34.2087 13.629 33.5484C13.629 32.888 13.9392 32.2789 14.4803 31.875ZM19.9194 41.9355C20.1512 41.9355 20.3775 41.9053 20.6007 41.8684L18.3468 44.1224L16.1599 41.9355H19.9194ZM13.1949 41.9355L16.8643 45.6048L13.629 48.8401L6.72442 41.9355H13.1949ZM18.3468 47.0873L21.582 50.3226L18.3468 53.5578L15.1115 50.3226L18.3468 47.0873ZM19.7904 57.9664C16.7752 57.1571 14.0171 55.7084 11.6705 53.7636L13.629 51.8051L19.7904 57.9664ZM27.7823 56.5228L29.9691 58.7097H25.5954L27.7823 56.5228ZM37.2177 56.5228L39.4046 58.7097H35.0309L37.2177 56.5228ZM51.371 51.8051L53.3295 53.7636C50.9829 55.7084 48.2248 57.1571 45.2096 57.9664L51.371 51.8051ZM46.6532 53.5578L43.418 50.3226L46.6532 47.0873L49.8885 50.3226L46.6532 53.5578ZM48.1357 45.6048L51.8051 41.9355H58.2756L51.371 48.8401L48.1357 45.6048ZM46.6532 44.1224L44.3993 41.8684C44.6225 41.9053 44.8487 41.9355 45.0806 41.9355H48.8401L46.6532 44.1224ZM50.1106 36.2124C50.2074 36.8804 49.9955 37.53 49.5291 37.9958C49.0623 38.4612 48.4127 38.6762 47.7446 38.5784L47.1273 38.4883L46.7551 38.9884C45.9458 40.0706 44.2135 40.0686 43.4082 38.9884L43.0351 38.4883L42.4177 38.5784C41.7532 38.6751 41.1 38.4622 40.6332 37.9958C40.5262 37.8889 40.4341 37.7721 40.3547 37.6477C40.689 37.0406 40.8871 36.3634 40.8871 35.6452C40.8871 34.5179 40.4428 33.4665 39.6488 32.6833C39.6508 32.4299 39.6227 32.179 39.5797 31.9338C39.6017 31.9159 39.6176 31.8919 39.6406 31.875L40.1407 31.5028L40.0506 30.8854C39.9539 30.2179 40.1658 29.5678 40.6322 29.102C41.099 28.6356 41.7543 28.4227 42.4167 28.5194L43.034 28.6095L43.4072 28.1094C44.2135 27.0298 45.9447 27.0272 46.7541 28.1094L47.1262 28.6095L47.7436 28.5194C48.4091 28.4196 49.0623 28.6346 49.5271 29.1009C49.9934 29.5678 50.2054 30.2179 50.1096 30.8854L50.0195 31.5028L50.5197 31.876C51.0607 32.2789 51.371 32.888 51.371 33.5484C51.371 34.2087 51.0607 34.8179 50.5197 35.2218L50.0195 35.595L50.1106 36.2124ZM58.7947 22.2281C58.7127 22.2224 58.6344 22.204 58.5515 22.204C58.5428 22.204 58.5346 22.205 58.5274 22.205C57.7422 21.4121 56.6907 20.9677 55.5645 20.9677C55.0465 20.9677 54.5474 21.0717 54.08 21.2508C51.7303 14.9825 46.8923 10.1987 40.8871 7.86802V3.45231C49.4953 6.25807 56.3646 13.2477 58.7947 22.2281ZM24.1129 3.44923V7.86802C18.1087 10.1987 13.2697 14.9835 10.921 21.2508C10.4526 21.0727 9.95456 20.9677 9.43548 20.9677C8.30826 20.9677 7.2568 21.4121 6.47359 22.206C6.46539 22.206 6.4572 22.206 6.44953 22.206C6.36711 22.206 6.28623 22.225 6.20432 22.2301C8.6323 13.241 15.4975 6.25244 24.1129 3.44923ZM3.99646 27.6814L4.4966 27.3082L4.4065 26.6909C4.30975 26.0228 4.52168 25.3732 4.98803 24.9074C5.45489 24.441 6.11013 24.2301 6.77254 24.3248L7.3899 24.4149L7.76308 23.9148C8.56934 22.8347 10.3006 22.8326 11.1099 23.9148L11.4821 24.4149L12.0995 24.3248C12.7639 24.2271 13.4181 24.439 13.8829 24.9064C14.3493 25.3732 14.5612 26.0228 14.4655 26.6909L14.3764 27.3C14.2443 27.4029 14.1082 27.4961 13.9874 27.6164C13.1919 28.4145 12.7629 29.4721 12.7706 30.5855C11.9766 31.3697 11.5323 32.4212 11.5323 33.5484C11.5323 33.8084 11.5614 34.0644 11.6075 34.3137L11.4821 34.2958L11.1099 34.7949C10.3006 35.8771 8.56831 35.875 7.76308 34.7949L7.3899 34.2947L6.77254 34.3848C6.10706 34.4795 5.45387 34.2686 4.98803 33.8023C4.52271 33.3354 4.31078 32.6868 4.4065 32.0188L4.4966 31.4014L3.99646 31.0283C3.45538 30.6244 3.14516 30.0152 3.14516 29.3548C3.14516 28.6945 3.45538 28.0853 3.99646 27.6814ZM2.09677 36.6935C2.09677 36.1151 2.56671 35.6452 3.14516 35.6452H3.94323C4.66655 36.1955 5.53321 36.5047 6.4485 36.5036H6.47256C7.2568 37.2976 8.30826 37.7419 9.43548 37.7419C10.5627 37.7419 11.6142 37.2966 12.3984 36.5036H12.4127C12.5248 36.5036 12.6364 36.4924 12.7486 36.4837C12.7567 36.4924 12.7619 36.5016 12.7706 36.5103C12.7629 37.6237 13.1919 38.6813 13.9884 39.4778C14.1251 39.6145 14.2771 39.7246 14.4281 39.8387H3.14516C2.56671 39.8387 2.09677 39.3688 2.09677 38.7903V36.6935ZM4.64556 42.8216L12.1465 50.3226L10.1168 52.3523C7.55269 49.7646 5.6402 46.5073 4.64556 42.8216ZM48.2258 60.8064C48.8043 60.8064 49.2742 61.2764 49.2742 61.8548C49.2742 62.4333 48.8043 62.9032 48.2258 62.9032H16.7742C16.1957 62.9032 15.7258 62.4333 15.7258 61.8548C15.7258 61.2764 16.1957 60.8064 16.7742 60.8064H48.2258ZM54.8832 52.3523L52.8535 50.3226L60.3544 42.8216C59.3598 46.5073 57.4473 49.7646 54.8832 52.3523ZM62.9032 38.7903C62.9032 39.3688 62.4333 39.8387 61.8548 39.8387H50.5729C50.7229 39.7246 50.8759 39.6145 51.0126 39.4778C51.8092 38.6813 52.2381 37.6237 52.2305 36.5103C52.2381 36.5026 52.2433 36.4934 52.2504 36.4857C52.3702 36.4965 52.4915 36.5082 52.6026 36.5036C53.3848 37.2966 54.4363 37.7419 55.5645 37.7419C56.6907 37.7419 57.7422 37.2976 58.5264 36.5036H58.5505C59.4658 36.5036 60.3324 36.1955 61.0557 35.6452H61.8548C62.4333 35.6452 62.9032 36.1151 62.9032 36.6935V38.7903Z" fill="black"/>
<path d="M32.5 38.7903C34.2339 38.7903 35.6452 37.379 35.6452 35.6452C35.6452 33.9113 34.2339 32.5 32.5 32.5C30.7662 32.5 29.3549 33.9113 29.3549 35.6452C29.3549 37.379 30.7662 38.7903 32.5 38.7903ZM32.5 34.5968C33.0785 34.5968 33.5484 35.0667 33.5484 35.6452C33.5484 36.2236 33.0785 36.6936 32.5 36.6936C31.9216 36.6936 31.4516 36.2236 31.4516 35.6452C31.4516 35.0667 31.9216 34.5968 32.5 34.5968Z" fill="black"/>
<path d="M19.9193 36.6936C21.6532 36.6936 23.0645 35.2822 23.0645 33.5484C23.0645 31.8146 21.6532 30.4032 19.9193 30.4032C18.1855 30.4032 16.7742 31.8146 16.7742 33.5484C16.7742 35.2822 18.1855 36.6936 19.9193 36.6936ZM19.9193 32.5C20.4978 32.5 20.9677 32.9699 20.9677 33.5484C20.9677 34.1268 20.4978 34.5968 19.9193 34.5968C19.3409 34.5968 18.8709 34.1268 18.8709 33.5484C18.8709 32.9699 19.3409 32.5 19.9193 32.5Z" fill="black"/>
<path d="M9.43544 32.5C11.1693 32.5 12.5806 31.0887 12.5806 29.3548C12.5806 27.621 11.1693 26.2097 9.43544 26.2097C7.70161 26.2097 6.29028 27.621 6.29028 29.3548C6.29028 31.0887 7.70161 32.5 9.43544 32.5ZM9.43544 28.3064C10.0139 28.3064 10.4838 28.7764 10.4838 29.3548C10.4838 29.9333 10.0139 30.4032 9.43544 30.4032C8.85699 30.4032 8.38706 29.9333 8.38706 29.3548C8.38706 28.7764 8.85699 28.3064 9.43544 28.3064Z" fill="black"/>
<path d="M45.0806 30.4032C43.3468 30.4032 41.9354 31.8146 41.9354 33.5484C41.9354 35.2822 43.3468 36.6936 45.0806 36.6936C46.8144 36.6936 48.2257 35.2822 48.2257 33.5484C48.2257 31.8146 46.8144 30.4032 45.0806 30.4032ZM45.0806 34.5968C44.5021 34.5968 44.0322 34.1268 44.0322 33.5484C44.0322 32.9699 44.5021 32.5 45.0806 32.5C45.659 32.5 46.129 32.9699 46.129 33.5484C46.129 34.1268 45.659 34.5968 45.0806 34.5968Z" fill="black"/>
<path d="M55.5645 26.2097C53.8306 26.2097 52.4193 27.621 52.4193 29.3548C52.4193 31.0887 53.8306 32.5 55.5645 32.5C57.2983 32.5 58.7096 31.0887 58.7096 29.3548C58.7096 27.621 57.2983 26.2097 55.5645 26.2097ZM55.5645 30.4032C54.986 30.4032 54.5161 29.9333 54.5161 29.3548C54.5161 28.7764 54.986 28.3064 55.5645 28.3064C56.1429 28.3064 56.6129 28.7764 56.6129 29.3548C56.6129 29.9333 56.1429 30.4032 55.5645 30.4032Z" fill="black"/>
</g>
<defs>
<clipPath id="clip0">
<rect width="65" height="65" fill="white"/>
</clipPath>
</defs>
</svg>
