<svg width="72" height="72" viewBox="0 0 72 72" fill="none" xmlns="http://www.w3.org/2000/svg">
<path d="M12.7111 26.1563C15.2859 31.9936 24.9539 52.2014 36.0352 53.9578C47.1094 52.2028 56.783 31.995 59.3592 26.1563C59.5608 25.6985 59.6193 25.1906 59.5272 24.699C59.4351 24.2074 59.1967 23.7551 58.8431 23.4014L38.0503 2.61001C37.5154 2.07596 36.7903 1.77602 36.0345 1.77602C35.2786 1.77602 34.5535 2.07596 34.0186 2.61001L13.2188 23.4028C12.8665 23.7572 12.6296 24.2097 12.539 24.701C12.4484 25.1924 12.5084 25.6996 12.7111 26.1563Z" fill="#AC3030"/>
<path d="M34.2998 17.0409C35.0339 18.3066 36.9816 24.0258 35.7159 24.7599C34.4503 25.4939 30.4523 20.963 29.7183 19.6974C29.5437 19.3965 29.4302 19.0643 29.3841 18.7195C29.338 18.3748 29.3602 18.0244 29.4495 17.6883C29.5389 17.3522 29.6935 17.0369 29.9047 16.7606C30.1158 16.4842 30.3793 16.2522 30.6801 16.0777C30.981 15.9031 31.3132 15.7896 31.6579 15.7435C32.0027 15.6974 32.3531 15.7196 32.6892 15.8089C33.0253 15.8983 33.3406 16.0529 33.6169 16.264C33.8933 16.4752 34.1253 16.7387 34.2998 17.0395V17.0409Z" fill="#DF9FC2"/>
<path d="M37.5553 33.2072C36.8213 31.9416 34.8736 26.2209 36.1378 25.4869C37.402 24.7528 41.4028 29.2838 42.1369 30.5494C42.4706 31.1558 42.5538 31.8688 42.3685 32.5357C42.1833 33.2027 41.7444 33.7706 41.1457 34.1181C40.5471 34.4656 39.8362 34.565 39.1652 34.395C38.4942 34.225 37.9163 33.7992 37.5553 33.2086V33.2072Z" fill="#B7177D"/>
<path d="M43.913 23.4689C42.6473 24.203 36.9267 26.152 36.1926 24.8864C35.4586 23.6208 39.9895 19.6214 41.2551 18.8873C41.8616 18.5536 42.5745 18.4705 43.2415 18.6557C43.9084 18.8409 44.4764 19.2798 44.8239 19.8785C45.1714 20.4772 45.2708 21.188 45.1008 21.859C44.9308 22.53 44.505 23.1079 43.9144 23.4689H43.913Z" fill="#DF9FC2"/>
<path d="M27.7467 26.7258C29.0109 25.9917 34.7344 24.0469 35.4656 25.3125C36.1969 26.5781 31.6687 30.5775 30.4031 31.3116C29.7956 31.664 29.0729 31.7607 28.3941 31.5803C27.7152 31.3999 27.1359 30.9572 26.7834 30.3497C26.431 29.7421 26.3343 29.0194 26.5147 28.3406C26.6951 27.6618 27.1377 27.0824 27.7453 26.73L27.7467 26.7258Z" fill="#415CA5"/>
<path d="M40.6505 18.3361C40.275 19.7494 37.6073 25.1719 36.194 24.7964C34.7808 24.4209 35.1548 18.3895 35.5303 16.9762C35.7218 16.3099 36.167 15.7452 36.7702 15.4033C37.3733 15.0614 38.0865 14.9696 38.7566 15.1476C39.4267 15.3255 40.0004 15.7591 40.3545 16.3552C40.7085 16.9513 40.8148 17.6625 40.6505 18.3361Z" fill="#CD458F"/>
<path d="M31.5619 31.9219C31.9373 30.5086 34.605 25.0861 36.0183 25.4616C37.4316 25.837 37.0561 31.8684 36.6806 33.2817C36.5913 33.6178 36.4367 33.933 36.2256 34.2094C36.0145 34.4857 35.751 34.7178 35.4502 34.8923C35.1494 35.0668 34.8172 35.1804 34.4725 35.2265C34.1278 35.2727 33.7774 35.2505 33.4413 35.1612C33.1052 35.0719 32.79 34.9173 32.5137 34.7062C32.2373 34.495 32.0052 34.2316 31.8307 33.9308C31.6562 33.63 31.5426 33.2977 31.4965 32.9531C31.4504 32.6084 31.4726 32.258 31.5619 31.9219Z" fill="#CD458F"/>
<path d="M42.9019 29.6789C41.4872 29.3034 36.0661 26.6372 36.4416 25.2225C36.817 23.8078 42.847 24.1847 44.2617 24.5602C44.9405 24.7405 45.5199 25.1831 45.8723 25.7906C46.2248 26.3981 46.3215 27.1207 46.1412 27.7995C45.9608 28.4782 45.5183 29.0576 44.9108 29.4101C44.3033 29.7625 43.5807 29.8592 42.9019 29.6789Z" fill="#E9C4D9"/>
<path d="M29.1684 20.5509C30.5817 20.9264 36.0042 23.5927 35.6287 25.0073C35.2533 26.422 29.2219 26.0452 27.8086 25.6697C27.4725 25.5804 27.1573 25.4258 26.8809 25.2147C26.6046 25.0036 26.3725 24.7401 26.198 24.4393C26.0235 24.1385 25.9099 23.8063 25.8638 23.4616C25.8176 23.1169 25.8399 22.7665 25.9291 22.4304C26.0184 22.0943 26.173 21.7791 26.3842 21.5027C26.5953 21.2264 26.8587 20.9943 27.1595 20.8198C27.4603 20.6453 27.7926 20.5317 28.1373 20.4856C28.4819 20.4394 28.8323 20.4616 29.1684 20.5509Z" fill="#CD458F"/>
<path d="M33.5292 24.5925C33.3892 25.1212 33.4164 25.6804 33.607 26.193C33.7976 26.7057 34.1423 27.1468 34.5938 27.4556C34.8438 27.6288 35.1222 27.7568 35.4164 27.8339C36.0959 28.0144 36.8194 27.9176 37.4275 27.5647C38.0356 27.2119 38.4787 26.6319 38.6592 25.9523C38.8397 25.2728 38.7429 24.5494 38.39 23.9413C38.0372 23.3331 37.4572 22.8901 36.7777 22.7095C36.4836 22.6308 36.1781 22.6042 35.8748 22.6308C35.3291 22.6753 34.8105 22.8878 34.3905 23.2391C33.9704 23.5904 33.6695 24.0632 33.5292 24.5925Z" fill="#AE7733"/>
<path d="M33.5292 24.5925C33.3892 25.1212 33.4164 25.6804 33.607 26.193C33.7976 26.7057 34.1423 27.1468 34.5938 27.4556C35.1388 27.4106 35.6566 27.198 36.0761 26.847C36.4955 26.496 36.796 26.0238 36.9364 25.4951C37.0767 24.9665 37.0501 24.4074 36.86 23.8946C36.6699 23.3817 36.3258 22.9403 35.8748 22.6308C35.3291 22.6753 34.8105 22.8878 34.3905 23.2391C33.9704 23.5904 33.6695 24.0632 33.5292 24.5925Z" fill="#C38634"/>
<path d="M12.7111 26.1562C15.2859 31.9936 24.9539 52.2014 36.0352 53.9578C47.1094 52.2028 56.783 31.995 59.3592 26.1562C59.5608 25.6985 59.6193 25.1906 59.5272 24.699C59.4351 24.2074 59.1967 23.7551 58.8431 23.4014C58.8431 23.4014 37.8534 43.6008 13.2258 23.4014C12.8721 23.7551 12.6337 24.2075 12.5418 24.6991C12.45 25.1908 12.509 25.6987 12.7111 26.1562Z" fill="#CF4849"/>
<path d="M46.5708 26.1563C46.7723 25.6985 46.8309 25.1906 46.7388 24.699C46.6467 24.2074 46.4082 23.7551 46.0547 23.4014L29.6409 6.98907L34.0186 2.61001C34.5535 2.07596 35.2786 1.77602 36.0345 1.77602C36.7903 1.77602 37.5154 2.07596 38.0503 2.61001L58.8431 23.4028C58.8431 23.4028 53.1127 28.9167 44.1281 31.3017C45.2095 29.1699 46.0406 27.3586 46.5708 26.1563Z" fill="#992E2F"/>
<path d="M28.8408 58.3073L31.5127 55.6355C31.7613 55.3858 31.9505 55.0832 32.066 54.7503C32.1815 54.4174 32.2205 54.0627 32.1799 53.7126C32.1394 53.3626 32.0204 53.0262 31.8318 52.7285C31.6432 52.4308 31.3899 52.1795 31.0908 51.9933C30.6014 51.6853 30.1163 51.3478 29.6367 50.985C35.7666 46.3444 40.995 37.4752 44.1211 31.2975C53.1056 28.9069 58.8361 23.3986 58.8361 23.3986C59.1914 23.7518 59.4315 24.2042 59.5249 24.6964C59.6183 25.1886 59.5605 25.6975 59.3592 26.1562C57.1725 31.1105 49.8811 46.4062 40.9514 52.0031C40.6551 52.1906 40.4048 52.4424 40.2191 52.7399C40.0334 53.0373 39.9172 53.3728 39.8789 53.7214C39.8407 54.0699 39.8815 54.4226 39.9983 54.7533C40.115 55.0839 40.3048 55.384 40.5534 55.6312L43.2253 58.3031C43.7273 58.8052 43.3659 62.6512 42.6628 62.6512H29.4047C28.6875 62.6555 28.3388 58.8094 28.8408 58.3073Z" fill="#AE4247"/>
<path d="M35.8298 52.6275C35.8298 47.88 39.7505 46.4723 41.625 46.0702C42.2554 45.8662 42.9338 45.8645 43.5652 46.0652C44.1966 46.266 44.7494 46.6591 45.1464 47.1896C45.5433 47.7201 45.7644 48.3614 45.7787 49.0238C45.7931 49.6862 45.6 50.3365 45.2264 50.8837C44.967 51.2724 44.8297 51.7297 44.8319 52.197C44.8342 52.6643 44.976 53.1202 45.2391 53.5064C45.5929 54.032 45.781 54.6517 45.7791 55.2853C45.7791 57.0628 44.2434 58.4733 42.4659 58.455C35.6119 58.3805 35.8298 52.6275 35.8298 52.6275Z" fill="#C38CAD"/>
<path d="M36.2419 52.5122C36.2419 48.9966 39.1416 47.9601 40.5281 47.662C40.8661 47.5528 41.2245 47.5215 41.5762 47.5707C41.928 47.6199 42.2641 47.7482 42.5591 47.9459C42.8542 48.1437 43.1006 48.4057 43.2798 48.7124C43.459 49.0191 43.5663 49.3624 43.5937 49.7166C43.6356 50.2496 43.4942 50.7809 43.193 51.2227C43.0009 51.5102 42.8992 51.8487 42.901 52.1945C42.9027 52.5403 43.0078 52.8777 43.2028 53.1633C43.4614 53.5527 43.5975 54.0107 43.5937 54.4781C43.5937 55.793 42.4575 56.8364 41.1441 56.8223C36.0802 56.7675 36.2419 52.5122 36.2419 52.5122Z" fill="#DD9EC1"/>
<path d="M36.2405 52.6275C36.2405 47.88 32.3198 46.4723 30.4453 46.0702C29.815 45.8667 29.1368 45.8653 28.5056 46.0662C27.8744 46.267 27.3218 46.66 26.9249 47.1903C26.528 47.7206 26.3067 48.3616 26.2919 49.0238C26.2771 49.686 26.4696 50.3363 26.8425 50.8838C27.1019 51.2724 27.2392 51.7297 27.237 52.197C27.2347 52.6643 27.0929 53.1202 26.8298 53.5064C26.4785 54.0328 26.2929 54.6524 26.2969 55.2853C26.2969 57.0628 27.8325 58.4733 29.6086 58.455C36.4584 58.3805 36.2405 52.6275 36.2405 52.6275Z" fill="#C38CAD"/>
<path d="M35.8284 52.5122C35.8284 48.9966 32.9273 47.9602 31.5408 47.662C31.2028 47.5531 30.8445 47.5221 30.4929 47.5713C30.1412 47.6206 29.8053 47.749 29.5103 47.9467C29.2153 48.1443 28.9689 48.4063 28.7896 48.7128C28.6104 49.0194 28.5028 49.3625 28.4752 49.7166C28.4331 50.2498 28.5751 50.7813 28.8774 51.2227C29.0687 51.5105 29.17 51.8488 29.1682 52.1945C29.1664 52.5401 29.0618 52.8774 28.8675 53.1633C28.606 53.5518 28.4669 54.0098 28.4681 54.4781C28.4681 55.793 29.6044 56.8364 30.9192 56.8223C35.9887 56.7675 35.8284 52.5122 35.8284 52.5122Z" fill="#DD9EC1"/>
<path d="M35.8284 52.5122L41.8036 68.9653C41.8196 69.0092 41.8217 69.0569 41.8096 69.102C41.7975 69.147 41.7717 69.1873 41.7358 69.2171C41.7 69.247 41.6557 69.265 41.6092 69.2688C41.5627 69.2726 41.5161 69.2619 41.4759 69.2381L40.043 68.3944C39.7398 68.2155 39.3796 68.1595 39.0365 68.238C38.6933 68.3165 38.3933 68.5234 38.198 68.8163L38.0348 69.0581C38.0093 69.097 37.9723 69.1271 37.929 69.1441C37.8857 69.1611 37.8382 69.1643 37.793 69.1532C37.7478 69.1421 37.7072 69.1173 37.6767 69.0821C37.6462 69.0469 37.6274 69.0032 37.6228 68.9569L35.8284 52.5122Z" fill="#CE6FA4"/>
<path d="M36.1744 52.5122L30.1978 68.9653C30.1823 69.0092 30.1807 69.0569 30.1931 69.1018C30.2055 69.1466 30.2314 69.1866 30.2673 69.2164C30.3031 69.2461 30.3472 69.2641 30.3937 69.268C30.4401 69.2719 30.4866 69.2615 30.5269 69.2381L31.9584 68.3944C32.2618 68.2154 32.6222 68.1594 32.9656 68.2379C33.309 68.3163 33.6093 68.5233 33.8048 68.8162L33.9666 69.0469C33.9924 69.0856 34.0295 69.1154 34.0728 69.1322C34.1161 69.1491 34.1636 69.1522 34.2088 69.1411C34.2539 69.1301 34.2946 69.1054 34.3252 69.0704C34.3559 69.0354 34.375 68.9919 34.38 68.9456L36.1744 52.5122Z" fill="#CE6FA4"/>
<path d="M33.179 52.6275C33.18 53.2892 33.4289 53.9266 33.8767 54.4138C34.3245 54.901 34.9386 55.2027 35.5979 55.2593C36.2572 55.3159 36.9138 55.1233 37.4381 54.7196C37.9624 54.3159 38.3163 53.7303 38.43 53.0784C38.5437 52.4265 38.409 51.7557 38.0524 51.1983C37.6958 50.6409 37.1432 50.2374 36.5036 50.0674C35.8641 49.8974 35.1841 49.9733 34.5978 50.2801C34.0115 50.5869 33.5615 51.1024 33.3365 51.7247C33.232 52.0142 33.1787 52.3197 33.179 52.6275Z" fill="#CB468E"/>
<path d="M33.3366 51.7247C33.5216 52.2371 33.8602 52.6801 34.3061 52.9932C34.752 53.3062 35.2836 53.4742 35.8284 53.4742C36.3733 53.4742 36.9049 53.3062 37.3508 52.9932C37.7967 52.6801 38.1353 52.2371 38.3203 51.7247C38.1346 51.2129 37.7958 50.7706 37.35 50.4581C36.9042 50.1456 36.3729 49.9779 35.8284 49.9779C35.284 49.9779 34.7527 50.1456 34.3069 50.4581C33.861 50.7706 33.5222 51.2129 33.3366 51.7247Z" fill="#CE6FA4"/>
<path d="M22.6533 12.7744C24.3281 17.2969 26.2969 21.0614 27.8325 22.898C28.5877 23.8008 29.2387 24.2381 29.6986 24.068C31.0908 23.5533 30.1936 17.6597 27.6961 10.9083C25.9805 6.26765 23.2988 2.6775 21.7898 0.881716C21.7018 0.776315 21.5833 0.700744 21.4506 0.665379C21.3179 0.630013 21.1775 0.636588 21.0487 0.684198C20.9199 0.731809 20.809 0.818123 20.7312 0.93129C20.6534 1.04446 20.6125 1.17893 20.6142 1.31625C20.6142 1.95469 20.648 2.75062 20.7183 3.66469C20.9053 6.11015 21.4045 9.39797 22.6533 12.7744Z" fill="#3E6E66"/>
<path d="M22.6533 12.7744C24.3281 17.2969 26.2969 21.0614 27.8325 22.898C27.803 20.5073 26.8481 16.3659 25.1747 11.8406C23.9259 8.46561 22.1653 5.64467 20.7169 3.66467C20.9053 6.11014 21.4045 9.39795 22.6533 12.7744Z" fill="#477D73"/>
<path d="M14.4928 24.5503C18.1406 27.7102 21.6731 30.0614 23.9062 30.9375C25.0031 31.3594 25.785 31.4353 26.1056 31.0655C27.0787 29.9405 23.4562 25.2098 18.0169 20.4933C14.2833 17.2589 10.2009 15.3956 8.01281 14.5477C7.88496 14.4977 7.7448 14.4886 7.61154 14.5215C7.47829 14.5544 7.35847 14.6277 7.26852 14.7313C7.17856 14.835 7.12288 14.9639 7.1091 15.1005C7.09533 15.237 7.12413 15.3745 7.19156 15.4941C7.50375 16.0566 7.91156 16.7344 8.41359 17.5022C10.1082 20.1185 12.1536 22.49 14.4928 24.5503Z" fill="#3E6E66"/>
<path d="M14.4928 24.5503C18.1406 27.7101 21.6731 30.0614 23.9063 30.9375C22.7292 28.8534 19.9013 25.6851 16.2563 22.5253C13.5366 20.167 10.6312 18.5414 8.41358 17.5022C10.1082 20.1185 12.1536 22.49 14.4928 24.5503Z" fill="#477D73"/>
<path d="M7.18875 7.73439C7.50093 8.29689 7.90875 8.97611 8.41078 9.74393C8.76797 10.2896 9.17156 10.8774 9.62578 11.4905C11.0494 13.4316 12.6815 15.2109 14.4928 16.7963C15.4884 17.6597 16.477 18.4641 17.4319 19.1869C17.9367 19.5736 18.4331 19.9392 18.9155 20.2796C20.0601 21.1071 21.2575 21.8592 22.5 22.531C22.9564 22.7746 23.4258 22.9929 23.9063 23.1849C24.0624 23.2453 24.2128 23.3002 24.3563 23.3466C24.6229 23.4358 24.8974 23.4994 25.1761 23.5364C25.3569 23.5626 25.5409 23.5583 25.7203 23.5238C25.7686 23.5128 25.8157 23.4973 25.8609 23.4774C25.953 23.4431 26.0351 23.3865 26.1 23.3128C26.2533 23.1371 26.2927 22.8727 26.228 22.5324C26.228 22.5061 26.2224 22.478 26.2111 22.448C26.1755 22.2988 26.1284 22.1526 26.0705 22.0106C25.8976 21.5806 25.6848 21.1677 25.4349 20.7774C24.5911 19.4077 23.1202 17.6442 21.2344 15.7486L21.0544 15.5672C20.1277 14.6447 19.1039 13.6927 18.007 12.7406C16.2707 11.2473 14.3831 9.93945 12.375 8.8383C10.9689 8.06059 9.51259 7.37751 8.01562 6.79361C7.88816 6.74309 7.74819 6.73319 7.61488 6.76528C7.48158 6.79736 7.36144 6.86986 7.27093 6.97285C7.18041 7.07584 7.12393 7.20428 7.10922 7.34061C7.09451 7.47693 7.12228 7.61446 7.18875 7.73439Z" fill="#3E6E66"/>
<path d="M8.41079 9.74953C8.76798 10.2952 9.17158 10.883 9.6258 11.4961C11.0494 13.4372 12.6815 15.2165 14.4928 16.8019C15.4884 17.6653 16.477 18.4697 17.4319 19.1925C17.9367 19.5792 18.4331 19.9448 18.9155 20.2852C20.0603 21.1108 21.2577 21.8609 22.5 22.5309C22.9564 22.7746 23.4258 22.9929 23.9063 23.1848C23.7291 22.8712 23.5153 22.5337 23.2664 22.1752C22.4227 20.9531 21.1697 19.4878 19.6327 17.9283C19.4799 17.7736 19.3247 17.6189 19.1672 17.4642C18.277 16.5825 17.2997 15.6769 16.2563 14.7712C14.4429 13.2157 12.4663 11.8611 10.3613 10.7311C9.67079 10.3584 9.01548 10.0322 8.41079 9.74953Z" fill="#477D73"/>
<path d="M47.6212 12.7744C45.9478 17.2983 43.9791 21.0614 42.4434 22.8994C41.6869 23.8022 41.0372 24.2395 40.5773 24.0694C39.1852 23.5547 40.0809 17.6611 42.5798 10.9097C44.2941 6.26907 46.9772 2.67891 48.4861 0.883129C48.5743 0.778277 48.6927 0.703206 48.8251 0.668174C48.9575 0.633141 49.0976 0.639856 49.226 0.687401C49.3545 0.734946 49.4652 0.821001 49.5429 0.933809C49.6206 1.04662 49.6616 1.18067 49.6603 1.31766C49.6603 1.9561 49.628 2.75204 49.5577 3.6661C49.3706 6.11016 48.87 9.39797 47.6212 12.7744Z" fill="#3E6E66"/>
<path d="M47.6212 12.7744C45.9478 17.2983 43.9791 21.0614 42.4434 22.8994C42.4716 20.5088 43.4278 16.3674 45.1012 11.842C46.35 8.46704 48.1092 5.64611 49.5591 3.66611C49.3706 6.11017 48.87 9.39798 47.6212 12.7744Z" fill="#477D73"/>
<path d="M55.7831 24.5503C52.1381 27.7101 48.6014 30.0614 46.3725 30.9319C45.2742 31.3537 44.4937 31.4297 44.1731 31.0598C43.2 29.9348 46.8225 25.2042 52.2619 20.4876C55.9955 17.2533 60.0764 15.39 62.2659 14.542C62.3937 14.4926 62.5336 14.4838 62.6666 14.5168C62.7996 14.5499 62.9191 14.6233 63.0088 14.7268C63.0985 14.8304 63.1541 14.9591 63.1678 15.0954C63.1816 15.2318 63.153 15.369 63.0858 15.4884C62.775 16.0509 62.3672 16.7287 61.8652 17.4966C60.1701 20.115 58.1237 22.4884 55.7831 24.5503Z" fill="#3E6E66"/>
<path d="M55.7831 24.5503C52.1381 27.7101 48.6014 30.0614 46.3725 30.9319C47.5495 28.8478 50.3775 25.6795 54.0225 22.5197C56.7408 20.1614 59.6475 18.5358 61.8652 17.4966C60.1701 20.115 58.1237 22.4884 55.7831 24.5503Z" fill="#477D73"/>
<path d="M55.7831 16.8019C52.1381 19.9631 48.6014 22.3144 46.3725 23.1848C45.2742 23.6067 44.4937 23.6826 44.1731 23.3128C43.2 22.1878 46.8225 17.4572 52.2619 12.7406C55.9955 9.50625 60.0764 7.64156 62.2659 6.79359C62.393 6.74532 62.5319 6.73716 62.6638 6.77021C62.7956 6.80325 62.9142 6.87592 63.0035 6.97842C63.0929 7.08091 63.1486 7.20832 63.1633 7.34348C63.178 7.47864 63.151 7.61506 63.0858 7.73437C62.775 8.29687 62.3672 8.97609 61.8652 9.7439C60.5236 11.8027 58.5 14.445 55.7831 16.8019Z" fill="#3E6E66"/>
<path d="M55.7831 16.8019C52.1381 19.9631 48.6014 22.3144 46.3725 23.1848C47.5495 21.1008 50.3775 17.9325 54.0225 14.7712C56.7408 12.4144 59.6475 10.7873 61.8652 9.74953C60.5236 11.8027 58.5 14.445 55.7831 16.8019Z" fill="#477D73"/>
<path d="M34.2998 5.20313C35.0339 6.46876 36.9844 12.1824 35.7187 12.9164C34.4531 13.6505 30.4552 9.11954 29.7211 7.85391C29.406 7.24916 29.3363 6.54616 29.5267 5.89134C29.717 5.23652 30.1526 4.68036 30.7427 4.3387C31.3329 3.99704 32.0321 3.89623 32.6947 4.05726C33.3573 4.21828 33.9323 4.62874 34.2998 5.20313Z" fill="#DF9FC2"/>
<path d="M37.5553 21.3637C36.8213 20.0981 34.8736 14.3789 36.1378 13.6448C37.402 12.9108 41.4028 17.4417 42.1369 18.7073C42.4893 19.3149 42.586 20.0376 42.4056 20.7164C42.2252 21.3952 41.7825 21.9746 41.175 22.327C40.5674 22.6795 39.8448 22.7761 39.1659 22.5957C38.4871 22.4154 37.9078 21.9727 37.5553 21.3651V21.3637Z" fill="#DF9FC2"/>
<path d="M43.913 11.6269C42.6473 12.3609 36.9267 14.3086 36.1926 13.043C35.4586 11.7773 39.9895 7.77937 41.2551 7.04531C41.8616 6.71157 42.5745 6.62842 43.2415 6.81365C43.9084 6.99889 44.4764 7.43779 44.8239 8.03645C45.1714 8.63512 45.2708 9.346 45.1008 10.017C44.9308 10.688 44.505 11.2658 43.9144 11.6269H43.913Z" fill="#DF9FC2"/>
<path d="M27.7467 14.8823C29.0123 14.1483 34.7316 12.2006 35.4656 13.4662C36.1997 14.7319 31.6687 18.7298 30.4031 19.4639C30.1023 19.6384 29.77 19.752 29.4253 19.7981C29.0806 19.8442 28.7302 19.8219 28.3941 19.7326C28.0579 19.6433 27.7427 19.4887 27.4664 19.2775C27.19 19.0664 26.9579 18.8029 26.7834 18.502C26.6089 18.2012 26.4954 17.8689 26.4493 17.5242C26.4031 17.1795 26.4254 16.8291 26.5147 16.493C26.604 16.1569 26.7587 15.8416 26.9698 15.5653C27.181 15.2889 27.4445 15.0569 27.7453 14.8823H27.7467Z" fill="#415CA5"/>
<path d="M40.6505 6.49266C40.275 7.90734 37.6073 13.3284 36.1941 12.953C34.7808 12.5775 35.1562 6.5475 35.5303 5.13281C35.7219 4.46645 36.167 3.90173 36.7702 3.55985C37.3734 3.21796 38.0865 3.12615 38.7566 3.30412C39.4267 3.48209 40.0004 3.91566 40.3545 4.51179C40.7085 5.10791 40.8148 5.81907 40.6505 6.49266Z" fill="#E9C4D9"/>
<path d="M31.5619 20.0742C31.9374 18.6595 34.605 13.2384 36.0183 13.6139C37.4316 13.9894 37.0561 20.0194 36.6806 21.4341C36.5003 22.1128 36.0577 22.6922 35.4502 23.0447C34.8427 23.3971 34.1201 23.4938 33.4413 23.3135C32.7625 23.1332 32.1832 22.6906 31.8307 22.0831C31.4783 21.4756 31.3816 20.753 31.5619 20.0742Z" fill="#E9C4D9"/>
<path d="M42.9019 17.8369C41.4872 17.4614 36.0661 14.7938 36.4416 13.3805C36.817 11.9672 42.847 12.3413 44.2617 12.7167C44.9281 12.9083 45.4928 13.3534 45.8347 13.9566C46.1766 14.5598 46.2684 15.2729 46.0904 15.9431C45.9124 16.6132 45.4789 17.1868 44.8827 17.5409C44.2866 17.8949 43.5755 18.0012 42.9019 17.8369Z" fill="#E9C4D9"/>
<path d="M29.1684 8.70749C30.5817 9.08296 36 11.7506 35.6287 13.1639C35.2575 14.5772 29.2219 14.2031 27.8086 13.8276C27.4662 13.7441 27.1439 13.5931 26.8606 13.3835C26.5773 13.1738 26.3386 12.9097 26.1586 12.6067C25.9787 12.3037 25.861 11.9678 25.8124 11.6187C25.7639 11.2696 25.7855 10.9143 25.8759 10.5737C25.9664 10.2331 26.1239 9.91389 26.3393 9.63489C26.5546 9.3559 26.8235 9.12267 27.1301 8.94888C27.4367 8.77509 27.775 8.66422 28.125 8.62277C28.475 8.58132 28.8297 8.61012 29.1684 8.70749Z" fill="#E9C4D9"/>
<path d="M33.5292 12.7491C33.3896 13.2774 33.417 13.836 33.6076 14.3481C33.7983 14.8603 34.1427 15.3008 34.5937 15.6094C34.8438 15.7826 35.1222 15.9106 35.4164 15.9876C36.0911 16.1542 36.8042 16.0492 37.4022 15.6952C38.0002 15.3412 38.4352 14.7665 38.6137 14.0949C38.7922 13.4233 38.6997 12.7084 38.3563 12.1043C38.0129 11.5001 37.446 11.055 36.7777 10.8647C36.4837 10.7855 36.1781 10.7584 35.8748 10.7845C35.3287 10.8292 34.8099 11.0421 34.3898 11.394C33.9697 11.7458 33.669 12.2192 33.5292 12.7491Z" fill="#AE7733"/>
<path d="M33.5292 12.749C33.3896 13.2774 33.417 13.836 33.6076 14.3481C33.7983 14.8602 34.1427 15.3008 34.5937 15.6094C35.1388 15.5644 35.6566 15.3517 36.0761 15.0007C36.4955 14.6497 36.796 14.1775 36.9364 13.6489C37.0767 13.1203 37.0501 12.5612 36.86 12.0483C36.6699 11.5355 36.3258 11.094 35.8748 10.7845C35.3287 10.8292 34.8099 11.0421 34.3898 11.394C33.9697 11.7458 33.669 12.2192 33.5292 12.749Z" fill="#C38634"/>
<path d="M24.5545 16.8637C25.2886 18.1294 27.2362 23.8486 25.9706 24.5827C24.705 25.3167 20.707 20.7858 19.973 19.5202C19.6205 18.9126 19.5238 18.1899 19.7042 17.5111C19.8846 16.8323 20.3273 16.2529 20.9348 15.9005C21.5424 15.548 22.2651 15.4514 22.9439 15.6317C23.6227 15.8121 24.2021 16.2548 24.5545 16.8623V16.8637Z" fill="#415CA5"/>
<path d="M27.81 33.03C27.0759 31.7644 25.1283 26.0438 26.3925 25.3097C27.6567 24.5756 31.6575 29.1066 32.3916 30.3722C32.7253 30.9786 32.8084 31.6916 32.6232 32.3585C32.438 33.0255 31.9991 33.5935 31.4004 33.9409C30.8017 34.2884 30.0909 34.3878 29.4199 34.2178C28.7489 34.0478 28.171 33.622 27.81 33.0314V33.03Z" fill="#415CA5"/>
<path d="M34.1719 23.2917C32.9062 24.0258 27.187 25.9748 26.453 24.7092C25.7189 23.4436 30.2498 19.4442 31.5155 18.7102C32.123 18.3579 32.8456 18.2614 33.5243 18.4419C34.203 18.6224 34.7822 19.0652 35.1345 19.6727C35.4867 20.2803 35.5832 21.0029 35.4027 21.6816C35.2222 22.3603 34.7794 22.9395 34.1719 23.2917Z" fill="#415CA5"/>
<path d="M18 26.5486C19.2656 25.8145 24.9862 23.8655 25.7203 25.1311C26.4544 26.3967 21.9234 30.3961 20.6578 31.1302C20.0517 31.4594 19.341 31.5393 18.6769 31.3528C18.0128 31.1663 17.4476 30.7282 17.1015 30.1315C16.7553 29.5349 16.6556 28.8267 16.8234 28.1576C16.9911 27.4886 17.4133 26.9113 18 26.5486Z" fill="#415CA5"/>
<path d="M30.9052 18.1589C30.5297 19.5722 27.862 24.9947 26.4487 24.6192C25.0355 24.2438 25.4095 18.2124 25.785 16.7991C25.9765 16.1327 26.4217 15.568 27.0249 15.2261C27.628 14.8842 28.3412 14.7924 29.0113 14.9704C29.6814 15.1484 30.2551 15.5819 30.6091 16.178C30.9632 16.7742 31.0695 17.4853 30.9052 18.1589Z" fill="#5272B4"/>
<path d="M21.8165 31.7391C22.192 30.3328 24.8597 24.9033 26.273 25.2788C27.6862 25.6542 27.3108 31.6856 26.9353 33.0989C26.846 33.435 26.6914 33.7502 26.4803 34.0266C26.2692 34.3029 26.0057 34.535 25.7049 34.7095C25.4041 34.884 25.0719 34.9976 24.7272 35.0437C24.3825 35.0899 24.0321 35.0676 23.696 34.9784C23.3599 34.8891 23.0447 34.7345 22.7683 34.5233C22.492 34.3122 22.2599 34.0488 22.0854 33.748C21.9109 33.4472 21.7973 33.1149 21.7512 32.7703C21.705 32.4256 21.7273 32.0752 21.8165 31.7391Z" fill="#5272B4"/>
<path d="M33.1552 29.5017C31.7489 29.1262 26.3194 26.46 26.6963 25.0453C27.0731 23.6306 33.1017 24.0075 34.5164 24.383C35.1952 24.5635 35.7745 25.0062 36.1268 25.6139C36.4791 26.2215 36.5757 26.9442 36.3952 27.623C36.2146 28.3017 35.7719 28.881 35.1643 29.2334C34.5566 29.5857 33.8339 29.6822 33.1552 29.5017Z" fill="#5272B4"/>
<path d="M19.4231 20.3738C20.8364 20.7492 26.2589 23.4155 25.8834 24.8302C25.508 26.2448 19.4766 25.868 18.0619 25.4925C17.3831 25.312 16.8038 24.8692 16.4515 24.2616C16.0991 23.654 16.0026 22.9313 16.1831 22.2525C16.3636 21.5737 16.8064 20.9944 17.414 20.6421C18.0216 20.2898 18.7443 20.1932 19.4231 20.3738Z" fill="#5272B4"/>
<path d="M23.7839 24.4153C23.6427 24.9439 23.6687 25.5032 23.8583 26.0164C24.0479 26.5296 24.3919 26.9715 24.8428 27.2812C25.0925 27.4542 25.3704 27.5822 25.6641 27.6595C26.0005 27.7489 26.3513 27.7711 26.6964 27.725C27.0414 27.6788 27.374 27.5651 27.6752 27.3904C27.9763 27.2156 28.24 26.9833 28.4514 26.7067C28.6627 26.43 28.8175 26.1144 28.9069 25.778C28.9963 25.4415 29.0185 25.0907 28.9723 24.7456C28.9261 24.4006 28.8124 24.068 28.6377 23.7669C28.463 23.4657 28.2307 23.202 27.954 22.9907C27.6774 22.7793 27.3618 22.6245 27.0253 22.5352C26.7318 22.4564 26.4267 22.4297 26.1239 22.4564C25.5795 22.5018 25.0624 22.7144 24.6435 23.0651C24.2246 23.4158 23.9244 23.8874 23.7839 24.4153Z" fill="#AE7733"/>
<path d="M23.7839 24.4153C23.6427 24.9439 23.6687 25.5032 23.8583 26.0164C24.0479 26.5296 24.3919 26.9715 24.8428 27.2812C25.3879 27.2362 25.9057 27.0236 26.3251 26.6726C26.7446 26.3216 27.0451 25.8494 27.1854 25.3208C27.3258 24.7921 27.2991 24.233 27.109 23.7202C26.919 23.2073 26.5749 22.7659 26.1239 22.4564C25.5795 22.5018 25.0624 22.7144 24.6435 23.0651C24.2246 23.4158 23.9244 23.8874 23.7839 24.4153Z" fill="#C38634"/>
<path d="M41.5252 18.218C42.5587 19.2516 45.9098 24.2803 44.8762 25.3139C43.8427 26.3475 38.8139 22.9978 37.7789 21.9628C37.2823 21.466 37.0034 20.7923 37.0035 20.0899C37.0037 19.3875 37.2828 18.7139 37.7796 18.2173C38.2764 17.7207 38.9501 17.4418 39.6525 17.4419C40.355 17.442 41.0286 17.7212 41.5252 18.218Z" fill="#E5BE3D"/>
<path d="M48.8222 33.0061C47.7872 31.9711 44.4361 26.9437 45.4711 25.9087C46.5061 24.8737 51.5334 28.2263 52.567 29.2598C53.0638 29.7564 53.343 30.43 53.3431 31.1325C53.3432 31.8349 53.0643 32.5086 52.5677 33.0054C52.0711 33.5022 51.3975 33.7813 50.6951 33.7815C49.9927 33.7816 49.319 33.5027 48.8222 33.0061Z" fill="#E5BE3D"/>
<path d="M52.4658 21.9628C51.4322 22.9978 46.4034 26.3489 45.3698 25.3139C44.3362 24.2789 47.6859 19.2516 48.7209 18.218C49.2175 17.7214 49.8911 17.4424 50.5934 17.4424C51.2956 17.4424 51.9692 17.7214 52.4658 18.218C52.9624 18.7146 53.2414 19.3881 53.2414 20.0904C53.2414 20.7927 52.9624 21.4662 52.4658 21.9628Z" fill="#E5BE3D"/>
<path d="M37.6776 29.2598C38.7126 28.2262 43.74 24.8752 44.775 25.9087C45.81 26.9423 42.4575 31.9711 41.4239 33.0061C40.9243 33.4891 40.2549 33.7565 39.56 33.7507C38.8651 33.7448 38.2003 33.4662 37.709 32.9748C37.2176 32.4834 36.9389 31.8186 36.9331 31.1237C36.9272 30.4288 37.1946 29.7594 37.6776 29.2598Z" fill="#E5BE3D"/>
<path d="M47.9953 17.8397C47.9953 19.3022 46.8098 25.2267 45.3473 25.2267C43.8848 25.2267 42.698 19.3022 42.698 17.8397C42.6898 17.4867 42.7523 17.1357 42.8818 16.8072C43.0112 16.4788 43.205 16.1795 43.4518 15.927C43.6986 15.6745 43.9933 15.4738 44.3187 15.3368C44.6441 15.1998 44.9936 15.1293 45.3466 15.1293C45.6997 15.1293 46.0492 15.1998 46.3746 15.3368C46.7 15.4738 46.9947 15.6745 47.2415 15.927C47.4882 16.1795 47.682 16.4788 47.8115 16.8072C47.9409 17.1357 48.0034 17.4867 47.9953 17.8397Z" fill="#E7CB75"/>
<path d="M42.698 33.2986C42.698 31.8347 43.8848 25.9102 45.3473 25.9102C46.8098 25.9102 47.9953 31.8347 47.9953 33.2986C47.9794 33.9905 47.6933 34.6487 47.1983 35.1324C46.7033 35.6161 46.0387 35.8869 45.3466 35.8869C44.6545 35.8869 43.9899 35.6161 43.495 35.1324C43 34.6487 42.7139 33.9905 42.698 33.2986Z" fill="#E7CB75"/>
<path d="M53.0831 28.2248C51.6206 28.2248 45.6961 27.0394 45.6961 25.5755C45.6961 24.1116 51.6206 22.9219 53.0831 22.9219C53.4361 22.9137 53.7871 22.9762 54.1156 23.1057C54.4441 23.2351 54.7433 23.4289 54.9958 23.6757C55.2484 23.9225 55.449 24.2172 55.586 24.5426C55.723 24.868 55.7935 25.2175 55.7935 25.5705C55.7935 25.9236 55.723 26.2731 55.586 26.5985C55.449 26.9239 55.2484 27.2186 54.9958 27.4654C54.7433 27.7121 54.4441 27.9059 54.1156 28.0354C53.7871 28.1649 53.4361 28.2273 53.0831 28.2192V28.2248Z" fill="#E7CB75"/>
<path d="M37.4667 22.9219C38.9292 22.9219 44.8552 24.1073 44.8552 25.5698C44.8552 27.0323 38.9292 28.2192 37.4667 28.2192C36.7748 28.2033 36.1166 27.9172 35.6329 27.4222C35.1492 26.9272 34.8784 26.2626 34.8784 25.5705C34.8784 24.8785 35.1492 24.2138 35.6329 23.7189C36.1166 23.2239 36.7748 22.9378 37.4667 22.9219Z" fill="#E7CB75"/>
<path d="M42.7191 25.7147C42.7192 26.2612 42.8883 26.7942 43.2033 27.2409C43.5182 27.6875 43.9636 28.0258 44.4783 28.2094C44.7641 28.3126 45.0659 28.365 45.3698 28.3641C46.0729 28.3641 46.7471 28.0848 47.2442 27.5877C47.7413 27.0905 48.0206 26.4163 48.0206 25.7133C48.0206 25.0102 47.7413 24.336 47.2442 23.8389C46.7471 23.3418 46.0729 23.0625 45.3698 23.0625C45.0659 23.0616 44.7641 23.1139 44.4783 23.2172C43.9631 23.401 43.5174 23.7397 43.2025 24.1868C42.8875 24.634 42.7186 25.1677 42.7191 25.7147Z" fill="#AE7733"/>
<path d="M42.7191 25.7147C42.7192 26.2612 42.8883 26.7943 43.2033 27.2409C43.5182 27.6875 43.9636 28.0258 44.4783 28.2094C44.993 28.0254 45.4382 27.6868 45.753 27.24C46.0678 26.7931 46.2368 26.2599 46.2368 25.7133C46.2368 25.1667 46.0678 24.6335 45.753 24.1866C45.4382 23.7398 44.993 23.4012 44.4783 23.2172C43.9631 23.401 43.5174 23.7397 43.2025 24.1869C42.8875 24.634 42.7186 25.1677 42.7191 25.7147Z" fill="#C38634"/>
</svg>
